<svg width="72" height="72" viewBox="0 0 32 32" xmlns="http://www.w3.org/2000/svg">
  <circle cx="16" cy="16" r="2.8" fill="#9d87f5"/>
  <circle cx="16" cy="7" r="2" fill="#6f5ce8"/>
  <circle cx="23.9" cy="11.5" r="2" fill="#6f5ce8"/>
  <circle cx="23.9" cy="20.5" r="2" fill="#6f5ce8"/>
  <circle cx="16" cy="25" r="2" fill="#6f5ce8"/>
  <circle cx="8.1" cy="20.5" r="2" fill="#6f5ce8"/>
  <circle cx="8.1" cy="11.5" r="2" fill="#6f5ce8"/>
  <line x1="16" y1="16" x2="16" y2="9" stroke="#9d87f5" stroke-width="1.2" opacity=".7"/>
  <line x1="16" y1="16" x2="22.5" y2="12" stroke="#9d87f5" stroke-width="1.2" opacity=".7"/>
  <line x1="16" y1="16" x2="22.5" y2="20" stroke="#9d87f5" stroke-width="1.2" opacity=".7"/>
  <line x1="16" y1="16" x2="16" y2="23" stroke="#9d87f5" stroke-width="1.2" opacity=".7"/>
  <line x1="16" y1="16" x2="9.5" y2="20" stroke="#9d87f5" stroke-width="1.2" opacity=".7"/>
  <line x1="16" y1="16" x2="9.5" y2="12" stroke="#9d87f5" stroke-width="1.2" opacity=".7"/>
  <line x1="16" y1="7" x2="23.9" y2="11.5" stroke="#6f5ce8" stroke-width=".9" opacity=".4"/>
  <line x1="23.9" y1="11.5" x2="23.9" y2="20.5" stroke="#6f5ce8" stroke-width=".9" opacity=".4"/>
  <line x1="23.9" y1="20.5" x2="16" y2="25" stroke="#6f5ce8" stroke-width=".9" opacity=".4"/>
  <line x1="16" y1="25" x2="8.1" y2="20.5" stroke="#6f5ce8" stroke-width=".9" opacity=".4"/>
  <line x1="8.1" y1="20.5" x2="8.1" y2="11.5" stroke="#6f5ce8" stroke-width=".9" opacity=".4"/>
  <line x1="8.1" y1="11.5" x2="16" y2="7" stroke="#6f5ce8" stroke-width=".9" opacity=".4"/>
</svg>